<svg width="739" height="372" viewBox="0 0 739 372" fill="none" xmlns="http://www.w3.org/2000/svg">
<path d="M110.6 173.76H83.44L79.8 200.64H106.96L110.6 173.76ZM177.8 200.64V237.04H144.2L136.64 295H94.92L102.48 237.04H75.32L67.76 295H26.32L34.16 237.04H5.04V200.64H38.64L42 173.76H13.44V137.64H46.76L53.76 83.88H94.92L87.92 137.64H115.08L122.36 83.88H163.8L156.8 137.64H185.36V173.76H152.32L148.68 200.64H177.8Z" fill="#F2B03C"/>
<path d="M268.03 118.484H288.398C287.773 112.945 286.254 108.032 283.842 103.744C281.43 99.456 278.348 95.8827 274.596 93.024C270.933 90.076 266.735 87.8427 262 86.324C257.355 84.8053 252.397 84.046 247.126 84.046C239.801 84.046 233.19 85.3413 227.294 87.932C221.487 90.5227 216.574 94.096 212.554 98.652C208.534 103.208 205.452 108.568 203.308 114.732C201.164 120.807 200.092 127.417 200.092 134.564C200.092 141.532 201.164 148.053 203.308 154.128C205.452 160.113 208.534 165.339 212.554 169.806C216.574 174.273 221.487 177.801 227.294 180.392C233.19 182.893 239.801 184.144 247.126 184.144C253.022 184.144 258.427 183.251 263.34 181.464C268.253 179.677 272.541 177.087 276.204 173.692C279.867 170.297 282.815 166.188 285.048 161.364C287.281 156.54 288.666 151.135 289.202 145.15H268.834C268.03 151.582 265.797 156.763 262.134 160.694C258.561 164.625 253.558 166.59 247.126 166.59C242.391 166.59 238.371 165.697 235.066 163.91C231.761 162.034 229.081 159.577 227.026 156.54C224.971 153.503 223.453 150.108 222.47 146.356C221.577 142.515 221.13 138.584 221.13 134.564C221.13 130.365 221.577 126.301 222.47 122.37C223.453 118.439 224.971 114.955 227.026 111.918C229.081 108.791 231.761 106.335 235.066 104.548C238.371 102.672 242.391 101.734 247.126 101.734C249.717 101.734 252.173 102.181 254.496 103.074C256.908 103.878 259.052 105.039 260.928 106.558C262.804 108.077 264.367 109.863 265.618 111.918C266.869 113.883 267.673 116.072 268.03 118.484ZM320.452 134.564C320.452 130.365 320.899 126.301 321.792 122.37C322.775 118.439 324.294 114.955 326.348 111.918C328.403 108.791 331.083 106.335 334.388 104.548C337.694 102.672 341.714 101.734 346.448 101.734C351.183 101.734 355.203 102.672 358.508 104.548C361.814 106.335 364.494 108.791 366.548 111.918C368.603 114.955 370.077 118.439 370.97 122.37C371.953 126.301 372.444 130.365 372.444 134.564C372.444 138.584 371.953 142.515 370.97 146.356C370.077 150.108 368.603 153.503 366.548 156.54C364.494 159.577 361.814 162.034 358.508 163.91C355.203 165.697 351.183 166.59 346.448 166.59C341.714 166.59 337.694 165.697 334.388 163.91C331.083 162.034 328.403 159.577 326.348 156.54C324.294 153.503 322.775 150.108 321.792 146.356C320.899 142.515 320.452 138.584 320.452 134.564ZM299.414 134.564C299.414 141.532 300.486 148.053 302.63 154.128C304.774 160.113 307.856 165.339 311.876 169.806C315.896 174.273 320.81 177.801 326.616 180.392C332.512 182.893 339.123 184.144 346.448 184.144C353.863 184.144 360.474 182.893 366.28 180.392C372.087 177.801 377 174.273 381.02 169.806C385.04 165.339 388.122 160.113 390.266 154.128C392.41 148.053 393.482 141.532 393.482 134.564C393.482 127.417 392.41 120.807 390.266 114.732C388.122 108.568 385.04 103.208 381.02 98.652C377 94.096 372.087 90.5227 366.28 87.932C360.474 85.3413 353.863 84.046 346.448 84.046C339.123 84.046 332.512 85.3413 326.616 87.932C320.81 90.5227 315.896 94.096 311.876 98.652C307.856 103.208 304.774 108.568 302.63 114.732C300.486 120.807 299.414 127.417 299.414 134.564ZM428.901 164.312V104.012H443.909C449.091 104.012 453.423 104.771 456.907 106.29C460.481 107.719 463.339 109.819 465.483 112.588C467.627 115.357 469.146 118.707 470.039 122.638C471.022 126.479 471.513 130.812 471.513 135.636C471.513 140.907 470.843 145.373 469.503 149.036C468.163 152.699 466.377 155.691 464.143 158.014C461.91 160.247 459.364 161.855 456.505 162.838C453.647 163.821 450.699 164.312 447.661 164.312H428.901ZM407.863 86.324V182H449.135C456.461 182 462.803 180.794 468.163 178.382C473.613 175.881 478.124 172.486 481.697 168.198C485.36 163.91 488.085 158.818 489.871 152.922C491.658 147.026 492.551 140.594 492.551 133.626C492.551 125.675 491.435 118.752 489.201 112.856C487.057 106.96 484.02 102.047 480.089 98.116C476.248 94.1853 471.647 91.2373 466.287 89.272C461.017 87.3067 455.299 86.324 449.135 86.324H407.863ZM507.185 86.324V182H528.223V86.324H507.185ZM546.705 86.324V182H566.403V117.948H566.671L606.469 182H627.507V86.324H607.809V150.51H607.541L567.609 86.324H546.705ZM715.171 171.146L717.315 182H730.715V130.276H690.515V145.954H711.687C711.062 152.654 708.829 157.791 704.987 161.364C701.235 164.848 695.875 166.59 688.907 166.59C684.173 166.59 680.153 165.697 676.847 163.91C673.542 162.034 670.862 159.577 668.807 156.54C666.753 153.503 665.234 150.108 664.251 146.356C663.358 142.515 662.911 138.584 662.911 134.564C662.911 130.365 663.358 126.301 664.251 122.37C665.234 118.439 666.753 114.955 668.807 111.918C670.862 108.791 673.542 106.335 676.847 104.548C680.153 102.672 684.173 101.734 688.907 101.734C693.999 101.734 698.332 103.074 701.905 105.754C705.479 108.434 707.891 112.454 709.141 117.814H729.241C728.705 112.365 727.231 107.541 724.819 103.342C722.407 99.1433 719.325 95.6147 715.573 92.756C711.911 89.8973 707.757 87.7533 703.111 86.324C698.555 84.8053 693.821 84.046 688.907 84.046C681.582 84.046 674.971 85.3413 669.075 87.932C663.269 90.5227 658.355 94.096 654.335 98.652C650.315 103.208 647.233 108.568 645.089 114.732C642.945 120.807 641.873 127.417 641.873 134.564C641.873 141.532 642.945 148.053 645.089 154.128C647.233 160.113 650.315 165.339 654.335 169.806C658.355 174.273 663.269 177.801 669.075 180.392C674.971 182.893 681.582 184.144 688.907 184.144C693.553 184.144 698.153 183.206 702.709 181.33C707.265 179.365 711.419 175.97 715.171 171.146Z" fill="white"/>
<path d="M218.182 240.462V210.044H243.642C246.411 210.044 249.002 210.223 251.414 210.58C253.915 210.848 256.104 211.518 257.98 212.59C259.856 213.662 261.33 215.181 262.402 217.146C263.474 219.111 264.01 221.791 264.01 225.186C264.01 230.278 262.402 234.119 259.186 236.71C256.059 239.211 250.878 240.462 243.642 240.462H218.182ZM205.452 199.324V295H251.682C256.417 295 260.571 294.241 264.144 292.722C267.807 291.114 270.844 289.059 273.256 286.558C275.757 283.967 277.633 281.019 278.884 277.714C280.135 274.409 280.76 271.014 280.76 267.53C280.76 261.634 279.197 256.631 276.07 252.522C272.943 248.413 268.432 245.733 262.536 244.482V244.214C267.092 242.427 270.576 239.703 272.988 236.04C275.489 232.288 276.74 227.866 276.74 222.774C276.74 217.95 275.623 213.885 273.39 210.58C271.246 207.275 268.611 204.684 265.484 202.808C264.055 201.915 262.313 201.245 260.258 200.798C258.293 200.351 256.149 200.039 253.826 199.86C251.503 199.592 249.136 199.458 246.724 199.458C244.401 199.369 242.213 199.324 240.158 199.324H205.452ZM218.182 284.28V251.182H247.26C249.94 251.182 252.531 251.45 255.032 251.986C257.533 252.433 259.722 253.281 261.598 254.532C263.563 255.693 265.127 257.301 266.288 259.356C267.449 261.411 268.03 264.001 268.03 267.128C268.03 272.488 266.422 276.687 263.206 279.724C260.079 282.761 255.702 284.28 250.074 284.28H218.182ZM297.184 199.324V295H309.914V254.13H341.002C344.129 254.13 346.63 254.621 348.506 255.604C350.382 256.497 351.901 257.748 353.062 259.356C354.224 260.875 355.072 262.706 355.608 264.85C356.144 266.905 356.591 269.093 356.948 271.416C357.395 273.739 357.663 276.106 357.752 278.518C357.842 280.93 357.931 283.208 358.02 285.352C358.11 287.407 358.288 289.283 358.556 290.98C358.914 292.677 359.539 294.017 360.432 295H374.636C373.296 293.392 372.269 291.561 371.554 289.506C370.929 287.362 370.438 285.129 370.08 282.806C369.723 280.483 369.5 278.116 369.41 275.704C369.321 273.292 369.187 270.925 369.008 268.602C368.74 266.279 368.338 264.046 367.802 261.902C367.356 259.758 366.596 257.837 365.524 256.14C364.542 254.353 363.157 252.835 361.37 251.584C359.673 250.333 357.44 249.44 354.67 248.904V248.636C360.477 247.028 364.676 244.035 367.266 239.658C369.946 235.281 371.286 230.189 371.286 224.382C371.286 216.61 368.696 210.491 363.514 206.024C358.422 201.557 351.32 199.324 342.208 199.324H297.184ZM336.446 243.41H309.914V210.044H341.538C347.524 210.044 351.856 211.563 354.536 214.6C357.216 217.637 358.556 221.568 358.556 226.392C358.556 229.876 357.931 232.735 356.68 234.968C355.519 237.112 353.911 238.854 351.856 240.194C349.891 241.445 347.568 242.293 344.888 242.74C342.208 243.187 339.394 243.41 336.446 243.41ZM405.399 255.47L421.613 210.848H421.881L437.827 255.47H405.399ZM414.913 199.324L377.661 295H390.659L401.379 266.19H441.847L452.299 295H466.369L428.983 199.324H414.913ZM475.807 199.324V295H488.537V251.182H538.921V295H551.651V199.324H538.921V240.462H488.537V199.324H475.807Z" fill="white"/>
</svg>
